<svg xmlns="http://www.w3.org/2000/svg" width="50" height="" viewBox="0 275 975 1150">
<defs><clipPath clipPathUnits="userSpaceOnUse" id="a"><path d="M665.923 103.665h93.379v85.831h-93.379z"></path></clipPath></defs><g clip-path="url(#a)" transform="matrix(9.71 0 0 -9.71 -6423.866 2258.923)"><path d="M0 0c1.451 0 1.824-1.38 1.824-2.577C1.824-3.772 1.451-5.15 0-5.15c-1.355 0-1.827 1.449-1.827 2.573S-1.392 0 0 0m-1.827-4.678h.026C-1.392-5.467-.76-5.803.121-5.803c1.693 0 2.538 1.403 2.538 3.226C2.659-.701 1.933.651.121.651c-1.209 0-1.814-.884-1.922-1.183h-.026v3.938h-.76v-9.065h.76z" style="fill:#f0423e;fill-opacity:1;fill-rule:nonzero;stroke:none" transform="translate(737.477 112.216)"></path><path d="M0 0c0-.666-.035-2.223-1.825-2.223-.701 0-1.281.301-1.281 1.111C-3.106.242-1.534.375-.217.375H0zm.763 1.281c0 1.608-.643 2.296-2.164 2.296-.546 0-1.342-.192-1.812-.423v-.736c.565.361 1.172.509 1.812.509C-.375 2.927 0 2.395 0 1.342v-.315h-.145c-1.593 0-3.793-.095-3.793-2.164 0-.555.277-1.74 2.029-1.74.76 0 1.62.398 1.957 1.138h.024v-.993h.75c-.059.422-.059.797-.059 1.293z" style="fill:#f0423e;fill-opacity:1;fill-rule:nonzero;stroke:none" transform="translate(745.152 109.29)"></path><path d="M0 0c-1.283 0-1.74-.689-1.995-1.245h-.024v1.101h-.736c.047-.496.047-.98.047-1.451v-4.714h.763v3.41c0 1.025.434 2.248 1.824 2.248 1.052 0 1.462-.752 1.462-1.911v-3.747h.761v3.938C2.102-1.016 1.523 0 0 0" style="fill:#f0423e;fill-opacity:1;fill-rule:nonzero;stroke:none" transform="translate(750.435 112.867)"></path><path d="m0 0 3.012 2.734h-.983L-.725.207v5.426h-.763v-9.064h.763v3.165L2.32-3.431h1.051z" style="fill:#f0423e;fill-opacity:1;fill-rule:nonzero;stroke:none" transform="translate(755.935 109.988)"></path><path d="M0 0h-2.133l-10.048-3.71v-.789c3.026.919 10.194 1.32 10.194-2.255h-10.219v-.836H7.718c.805 0 .812.053.812.798v3.076h-.857v-3.038L3.01-6.759v3.031h-.852l-.004-3.026h-3.287c0 3.349-4.39 3.954-7.013 3.628z" style="fill:#f0423e;fill-opacity:1;fill-rule:nonzero;stroke:none" transform="translate(678.365 128.976)"></path><path d="M686.892 119.687h-.859v.859h.859zm-5.511 6.426h-.858v.856h.858z" style="fill:#f0423e;fill-opacity:1;fill-rule:nonzero;stroke:none"></path><path d="M0 0h1.716l1.38-4.608h.025L4.379 0h1.886l1.356-4.608h.024L8.938 0h1.548L8.575-6.228h-1.91L5.311-1.474h-.026l-1.33-4.754H2.106z" style="fill:#231f20;fill-opacity:1;fill-rule:nonzero;stroke:none" transform="translate(704.236 112.786)"></path><path d="M0 0c-.167.387-.41.607-.662.611v.002H-.67V.611C-.924.607-1.166.387-1.335 0l-3.681-8.441h1.931s1.791 4.145 2.419 5.58c.624-1.435 2.417-5.58 2.417-5.58h1.933z" style="fill:#231f20;fill-opacity:1;fill-rule:nonzero;stroke:none" transform="translate(670.934 114.996)"></path><path d="M669.611 109.094h1.312v-1.253h-1.312z" style="fill:#231f20;fill-opacity:1;fill-rule:nonzero;stroke:none"></path><path d="M0 0c0-1.159-.086-1.625-.321-1.899-.198-.243-.614-.349-1.028-.383v-1.425c.765 0 1.751.226 2.229.719.491.499.734 1.276.734 2.547v5.856H0z" style="fill:#231f20;fill-opacity:1;fill-rule:nonzero;stroke:none" transform="translate(687.321 107.373)"></path><path d="M0 0c-.615 0-.76.496-.76 1.027v2.902H.677v1.185H-.76v1.507h-1.62V.762c0-1.234.701-2.018 1.969-2.018.485 0 .859.048 1.197.144L.738.168C.57.06.291 0 0 0" style="fill:#231f20;fill-opacity:1;fill-rule:nonzero;stroke:none" transform="translate(677.406 107.67)"></path><path d="M0 0c-.618 0-.764.496-.764 1.027v2.902H.675v1.185H-.764v1.507h-1.62V.762c0-1.234.703-2.018 1.972-2.018.483 0 .857.048 1.195.144L.735.168C.565.06.287 0 0 0" style="fill:#231f20;fill-opacity:1;fill-rule:nonzero;stroke:none" transform="translate(681.656 107.67)"></path><path d="M683.955 113.379h1.617v1.547h-1.617zm0-6.822h1.617v6.226h-1.617zm18.059 6.822h1.62v1.547h-1.62zm0-6.822h1.62v6.226h-1.62zm-14.688 6.822h1.619v1.547h-1.619z" style="fill:#231f20;fill-opacity:1;fill-rule:nonzero;stroke:none"></path><path d="M0 0a1.37 1.37 0 0 0-1.135-.555c-.579 0-1.026.228-1.026.759 0 .955 1.073 1.077 1.8 1.077h.7C.339.798.266.349 0 0m1.815 1.355v.797c0 1.836-.786 2.622-2.684 2.622a5.6 5.6 0 0 1-2.164-.469l.05-1.391c.543.411 1.231.676 1.92.676.956 0 1.402-.339 1.402-1.342h-.895c-.675 0-1.473-.058-2.091-.361C-3.263 1.582-3.71 1.04-3.71.108c0-1.184 1.076-1.847 2.177-1.847.736 0 1.546.384 1.92 1.076h.025c.012-.196.012-.606.072-.932h1.428c-.035.483-.06.919-.075 1.391-.01.46-.022.93-.022 1.559" style="fill:#231f20;fill-opacity:1;fill-rule:nonzero;stroke:none" transform="translate(693.87 108.152)"></path><path d="M0 0h-.025v1.416h-1.438v-6.227h1.62v2.284c0 .894 0 2.54 1.318 2.54.288 0 .579-.049.724-.134v1.633c-.168.047-.339.047-.496.047C.736 1.559.071.58 0 0" style="fill:#231f20;fill-opacity:1;fill-rule:nonzero;stroke:none" transform="translate(698.779 111.368)"></path><path d="M0 0a1.38 1.38 0 0 0-1.136-.555c-.58 0-1.026.228-1.026.759 0 .955 1.076 1.077 1.8 1.077h.701C.339.798.268.349 0 0m1.816 1.355v.797c0 1.836-.79 2.622-2.684 2.622-.69 0-1.538-.179-2.165-.469l.047-1.391c.545.411 1.235.676 1.923.676.956 0 1.402-.339 1.402-1.342h-.894c-.678 0-1.476-.058-2.09-.361C-3.264 1.582-3.71 1.04-3.71.108c0-1.184 1.074-1.847 2.175-1.847.738 0 1.548.384 1.921 1.076h.026c.012-.196.012-.606.072-.932h1.425c-.035.483-.058.919-.071 1.391-.013.46-.022.93-.022 1.559" style="fill:#231f20;fill-opacity:1;fill-rule:nonzero;stroke:none" transform="translate(718.457 108.152)"></path><path d="M0 0v-7.094h1.619v5.04h1.416v1.185H1.619v.773c0 .483.171.954.715.954.349 0 .556-.132.701-.216l.131 1.34c-.312.074-.77.134-1.184.134C.701 2.116 0 1.245 0 0" style="fill:#231f20;fill-opacity:1;fill-rule:nonzero;stroke:none" transform="translate(721.826 113.652)"></path><path d="M0 0a1.39 1.39 0 0 0-1.137-.555c-.579 0-1.028.228-1.028.759 0 .955 1.075 1.077 1.801 1.077h.701C.337.798.265.349 0 0m1.813 1.355v.797c0 1.836-.787 2.622-2.686 2.622a5.6 5.6 0 0 1-2.164-.469l.049-1.391c.544.411 1.232.676 1.922.676.955 0 1.403-.339 1.403-1.342h-.894c-.677 0-1.475-.058-2.09-.361-.619-.305-1.065-.847-1.065-1.779 0-1.184 1.075-1.847 2.176-1.847.735 0 1.544.384 1.921 1.076h.023c.013-.196.013-.606.074-.932h1.426c-.035.483-.059.919-.072 1.391-.013.46-.023.93-.023 1.559" style="fill:#231f20;fill-opacity:1;fill-rule:nonzero;stroke:none" transform="translate(729.363 108.152)"></path><path d="M0 0v-1.297c.024 0 6.041-1.137 6.041 2.586V5.81H4.275V1.202C4.275-.666 0 0 0 0" style="fill:#231f20;fill-opacity:1;fill-rule:nonzero;stroke:none" transform="translate(724.58 120.265)"></path><path d="M758.761 130.06h-1.771v-8.635h1.771z" style="fill:#231f20;fill-opacity:1;fill-rule:nonzero;stroke:none"></path><path d="M0 0v3.331h-1.777V-.005h-3.032v.177c0 6.038-8.976 2.987-8.976 2.987V1.743s7.052 2.429 7.204-1.03V0h-8.921l.001 7.352h-1.791l-.004-7.428c0-.747.431-1.212 1.237-1.212L4.682-1.29c.806 0 1.238.464 1.238 1.211l-.008 7.431H4.123l.002-7.355z" style="fill:#231f20;fill-opacity:1;fill-rule:nonzero;stroke:none" transform="translate(749.699 122.708)"></path><path d="M0 0h-1.75l-.005-7.422c0-.747.431-1.211 1.236-1.211h9.947c.806 0 1.236.464 1.236 1.211l-.001 5.286c-.796.06-1.856.03-2.559.007-4.036-.126-2.909-4.329-2.909-4.329l3.852.002.001-.888H.008zm9.037-5.24-2.553-.002c-.119 1.088.332 2.014 2.553 1.748z" style="fill:#231f20;fill-opacity:1;fill-rule:nonzero;stroke:none" transform="translate(692.642 130.054)"></path><path d="M0 0c.002-.219-.013-.548-.013-.548h-.011C-.353-.586-3.727-.64-4.106-.642c-1.638-.011-3.433.544-3.43 3.166h-1.637c-.346-3.748 2.806-4.445 5.262-4.474 1.519-.017 5.715.191 5.715.191L1.798-.473c0 1.757.64 1.965 1.855 1.965v-3.337h1.769v4.627C2.378 2.967 0 2.873 0 0" style="fill:#231f20;fill-opacity:1;fill-rule:nonzero;stroke:none" transform="translate(721.12 123.257)"></path><path d="M0 0v-1.129c2.78-.554 6.262-.235 6.246 2.547v4.248c-.794.061-1.856.028-2.56.008C-.349 5.548.779 1.345.779 1.345l3.901.002C4.654-.633.68-.076 0 0m4.621 2.562-2.554-.005c-.122 1.092.332 2.016 2.554 1.753z" style="fill:#231f20;fill-opacity:1;fill-rule:nonzero;stroke:none" transform="translate(703.988 120.097)"></path><path d="M743.203 118.804h1.62v1.544h-1.62zm-43.163 9.995h1.619v1.544h-1.619zm21.256-9.993h1.62v1.548h-1.62zm-2.665 0h1.62v1.548h-1.62zm30.692 8.15h1.618v1.546h-1.618zm-2.666 0h1.62v1.546h-1.62z" style="fill:#231f20;fill-opacity:1;fill-rule:nonzero;stroke:none"></path><path d="M0 0v-31.761l12.485 14.612a2.956 2.956 0 0 0 4.458.057l7.872-9.203 7.816 9.146a2.957 2.957 0 0 0 4.46.057l7.869-9.2 6.682 7.81a2.95 2.95 0 0 0 2.253 1.042l5.145.001V0z" style="fill:#fab20b;fill-opacity:1;fill-rule:nonzero;stroke:none" transform="translate(683.085 189.496)"></path><path d="M0 0c-.903 0-1.71.405-2.253 1.042l-7.822 9.161-7.863-9.218a2.96 2.96 0 0 0-4.46.057l-7.831 9.156-7.4-8.673A2.96 2.96 0 0 0-39.836.54l-5.131.012v-16.476h59.041v30.798L2.206.985A2.96 2.96 0 0 0 0 0" style="fill:#f0423e;fill-opacity:1;fill-rule:nonzero;stroke:none" transform="translate(728.052 157.182)"></path><path d="M0 0c.877 0 1.663.381 2.206.985l7.401 8.673 7.83-9.156A2.95 2.95 0 0 1 19.691-.54c.877 0 1.663.381 2.205.985l7.865 9.218L37.582.502a2.957 2.957 0 0 1 4.459-.057l11.867 13.889-5.144-.001c-.902 0-1.71-.405-2.253-1.042l-6.682-7.81-7.87 9.2a2.95 2.95 0 0 1-2.205.986 2.95 2.95 0 0 1-2.254-1.042l-7.816-9.146-7.872 9.202a2.955 2.955 0 0 1-4.459-.056L-5.131.012z" style="fill:#f0423e;fill-opacity:1;fill-rule:nonzero;stroke:none" transform="translate(688.216 157.722)"></path><path d="M0 0c.877 0 1.663.381 2.206.985l7.401 8.673 7.83-9.156A2.95 2.95 0 0 1 19.691-.54c.877 0 1.663.381 2.205.985l7.865 9.218L37.582.502a2.957 2.957 0 0 1 4.459-.057l11.867 13.889-5.144-.001c-.902 0-1.71-.405-2.253-1.042l-6.682-7.81-7.87 9.2a2.95 2.95 0 0 1-2.205.986 2.95 2.95 0 0 1-2.254-1.042l-7.816-9.146-7.872 9.202a2.955 2.955 0 0 1-4.459-.056L-5.131.012z" style="fill:#231f20;fill-opacity:1;fill-rule:nonzero;stroke:none" transform="translate(688.216 157.722)"></path><path d="M699.443 159.188h-3.238v3.085h3.238z" style="fill:#231f20;fill-opacity:1;fill-rule:nonzero;stroke:none"></path></g></svg>